<svg width="125" height="125" viewBox="0 0 125 125" fill="none" xmlns="http://www.w3.org/2000/svg">
<path d="M54.2025 16.9193C53.9722 16.9541 53.7618 16.9025 53.5715 16.7647C53.3808 16.624 53.2678 16.437 53.2326 16.2039C53.1978 15.9735 53.251 15.7644 53.3922 15.5764C53.5329 15.3856 53.7184 15.2729 53.9488 15.2381C54.1791 15.2033 54.3896 15.2562 54.5804 15.3969C54.7707 15.5348 54.8833 15.7189 54.918 15.9493C54.9413 16.1038 54.9234 16.2516 54.8643 16.3927C54.8075 16.5306 54.7216 16.647 54.6067 16.7419C54.4917 16.8368 54.357 16.896 54.2025 16.9193Z" fill="white"/>
<path d="M34.8963 20.2013L36.7695 23.6064L35.6533 24.2209L32.4984 18.486L33.5698 17.8962L34.0833 18.8296L34.1542 18.7905C34.119 18.4142 34.1914 18.0566 34.3713 17.7176C34.5537 17.3772 34.8601 17.0885 35.2907 16.8514C35.6814 16.6363 36.0688 16.53 36.4528 16.5327C36.8355 16.5328 37.196 16.6488 37.5344 16.8809C37.8728 17.1129 38.1721 17.4654 38.4323 17.9383L40.439 21.5861L39.3229 22.2006L37.3901 18.6873C37.1614 18.2716 36.8744 18.0063 36.5292 17.8916C36.1826 17.7743 35.8202 17.8198 35.4419 18.0281C35.1831 18.1706 34.9837 18.3533 34.8437 18.5763C34.7062 18.7979 34.6386 19.0492 34.6407 19.3302C34.644 19.6073 34.7292 19.8976 34.8963 20.2013Z" fill="white"/>
<path d="M23.5843 36.4499L17.3663 33.6429L18.2245 32.6442L22.7049 34.8056L22.7465 34.7571L19.9409 30.6468L20.799 29.6481L25.2605 31.7989L25.3022 31.7504L22.5043 27.6637L23.3625 26.665L27.0726 32.3906L26.2255 33.3763L21.7759 31.3032L21.712 31.3776L24.4286 35.4674L23.5843 36.4499Z" fill="white"/>
<path d="M18.3733 48.3714C18.1622 48.9476 17.846 49.402 17.4246 49.7347C17.0033 50.0674 16.5117 50.2654 15.95 50.3288C15.3882 50.3922 14.7899 50.3075 14.1551 50.0748C13.5176 49.8412 13.0036 49.5181 12.6131 49.1057C12.2226 48.6933 11.974 48.2239 11.8672 47.6976C11.7604 47.1713 11.8126 46.6201 12.0236 46.0439C12.2347 45.4677 12.5509 45.0132 12.9722 44.6806C13.3936 44.3479 13.8865 44.1503 14.4509 44.0879C15.0153 44.0255 15.6163 44.1111 16.2538 44.3448C16.8886 44.5775 17.3999 44.8996 17.7878 45.311C18.1756 45.7225 18.4229 46.1914 18.5297 46.7176C18.6364 47.2439 18.5843 47.7952 18.3733 48.3714ZM17.3705 47.9993C17.5073 47.6258 17.5219 47.2802 17.4144 46.9624C17.3069 46.6446 17.1106 46.3669 16.8255 46.1293C16.5414 45.889 16.202 45.6965 15.8072 45.5518C15.4151 45.4081 15.033 45.3361 14.661 45.3359C14.2872 45.332 13.9554 45.4161 13.6654 45.5882C13.3755 45.7603 13.1621 46.0331 13.0253 46.4065C12.8876 46.7827 12.8733 47.1315 12.9825 47.4529C13.0926 47.7716 13.2911 48.0516 13.5779 48.2929C13.863 48.5305 14.2016 48.7212 14.5937 48.865C14.9885 49.0097 15.3714 49.0834 15.7425 49.0863C16.1145 49.0866 16.4442 49.0001 16.7315 48.8271C17.0197 48.6513 17.2327 48.3754 17.3705 47.9993Z" fill="white"/>
<path d="M16.2587 62.8054C16.236 63.3333 16.0809 63.7987 15.7935 64.2015C15.5033 64.6013 15.1019 64.9082 14.5894 65.1221C14.0742 65.3331 13.4632 65.4234 12.7565 65.393C12.0498 65.3626 11.4503 65.2188 10.958 64.9616C10.4659 64.7015 10.0954 64.3586 9.8464 63.9327C9.59742 63.5068 9.48422 63.0313 9.50681 62.5063C9.52426 62.1004 9.60642 61.7769 9.75328 61.5359C9.89742 61.2918 10.0618 61.1055 10.2465 60.977C10.4313 60.8456 10.5935 60.7445 10.733 60.6738L10.7363 60.5971L7.49639 60.4577L7.55113 59.1847L16.2703 59.56L16.2169 60.8032L15.1993 60.7594L15.1948 60.8658C15.3305 60.9484 15.4847 61.066 15.6573 61.2184C15.83 61.368 15.9777 61.5706 16.1004 61.8261C16.223 62.0816 16.2758 62.4081 16.2587 62.8054ZM15.1852 62.4777C15.2009 62.1116 15.1177 61.798 14.9356 61.5371C14.7507 61.2732 14.488 61.0686 14.1473 60.9231C13.8068 60.7748 13.4066 60.6908 12.9468 60.671C12.4927 60.6514 12.0925 60.6996 11.7463 60.8155C11.4001 60.9314 11.1265 61.1116 10.9254 61.356C10.7244 61.6004 10.6159 61.9085 10.5999 62.2803C10.5834 62.6635 10.669 62.9871 10.8567 63.2511C11.0444 63.5151 11.3072 63.7198 11.645 63.8651C11.9829 64.0076 12.3676 64.0881 12.799 64.1067C13.2361 64.1255 13.632 64.0772 13.9868 63.9616C14.3415 63.8461 14.6265 63.665 14.8419 63.4183C15.0545 63.1687 15.1689 62.8552 15.1852 62.4777Z" fill="white"/>
<path d="M10.144 78.9025L18.4579 76.2484L18.8451 77.4623L10.5312 80.1164L10.144 78.9025Z" fill="white"/>
<path d="M12.6392 85.2235L20.5588 81.5568L21.0938 82.7132L13.1741 86.3799L12.6392 85.2235Z" fill="white"/>
<path d="M26.8956 91.3641C27.2653 91.8538 27.4758 92.366 27.527 92.9006C27.5782 93.4352 27.4782 93.9558 27.2271 94.4624C26.976 94.969 26.5807 95.4262 26.0412 95.8338C25.4995 96.2431 24.9496 96.5001 24.3915 96.6049C23.8334 96.7097 23.3044 96.6643 22.8044 96.4688C22.3044 96.2733 21.8696 95.9307 21.4998 95.441C21.1301 94.9512 20.9196 94.4391 20.8684 93.9045C20.8172 93.3699 20.9183 92.8484 21.1717 92.3401C21.4251 91.8317 21.8227 91.3729 22.3644 90.9636C22.9038 90.556 23.4515 90.3007 24.0073 90.1976C24.5631 90.0946 25.091 90.1408 25.591 90.3363C26.091 90.5317 26.5258 90.8744 26.8956 91.3641ZM26.0396 92.0055C25.8 91.6881 25.5175 91.4884 25.1923 91.4066C24.8671 91.3247 24.5275 91.3392 24.1733 91.4501C23.8175 91.5587 23.4719 91.7398 23.1364 91.9933C22.8032 92.245 22.5357 92.5272 22.334 92.8399C22.1282 93.152 22.0191 93.4766 22.0066 93.8137C21.994 94.1507 22.1076 94.4779 22.3472 94.7953C22.5886 95.115 22.8739 95.3161 23.2031 95.3985C23.5305 95.4786 23.8733 95.4635 24.2314 95.3532C24.5855 95.2423 24.9292 95.061 25.2624 94.8092C25.5979 94.5558 25.8673 94.2738 26.0708 93.9634C26.2726 93.6507 26.3786 93.3267 26.3888 92.9914C26.3974 92.6538 26.281 92.3252 26.0396 92.0055Z" fill="white"/>
<path d="M35.5676 99.5976L31.4703 104.702L30.5102 103.931L31.161 103.12L31.1079 103.077C30.7943 103.277 30.4571 103.362 30.096 103.33C29.731 103.299 29.399 103.164 29.1 102.924C29.038 102.874 28.9667 102.813 28.8861 102.741C28.8033 102.667 28.7402 102.607 28.6968 102.561L29.4597 101.611C29.4907 101.654 29.5518 101.723 29.643 101.818C29.7324 101.916 29.828 102.005 29.9299 102.087C30.1647 102.276 30.414 102.394 30.6779 102.442C30.9377 102.49 31.191 102.47 31.4378 102.38C31.6829 102.293 31.8943 102.138 32.0721 101.917L34.5743 98.7997L35.5676 99.5976Z" fill="white"/>
<path d="M44.3535 104.26C44.9272 104.529 45.3603 104.891 45.6529 105.344C45.9416 105.8 46.0889 106.309 46.0945 106.874C46.1002 107.438 45.9639 108.017 45.6857 108.612C45.4039 109.214 45.042 109.692 44.6 110.046C44.1569 110.403 43.6686 110.616 43.1354 110.683C42.6021 110.75 42.0564 110.652 41.4981 110.391C41.0479 110.18 40.6857 109.908 40.4115 109.576C40.1362 109.246 39.9603 108.882 39.8839 108.482C39.8049 108.081 39.8382 107.671 39.9837 107.253L41.1067 107.779C41.0383 108.086 41.0678 108.392 41.1951 108.696C41.3199 108.999 41.5662 109.237 41.9341 109.409C42.2556 109.56 42.5771 109.607 42.8984 109.55C43.2159 109.495 43.5145 109.343 43.794 109.095C44.0723 108.849 44.3102 108.515 44.5077 108.093C44.71 107.66 44.819 107.257 44.8348 106.881C44.8505 106.506 44.7791 106.176 44.6205 105.891C44.4594 105.606 44.2155 105.386 43.8887 105.233C43.6701 105.131 43.4533 105.078 43.2385 105.075C43.0198 105.073 42.8145 105.119 42.6226 105.214C42.428 105.308 42.2563 105.451 42.1075 105.641L40.9845 105.115C41.2051 104.751 41.4901 104.467 41.8394 104.264C42.1887 104.06 42.5786 103.955 43.0092 103.946C43.4372 103.936 43.8853 104.041 44.3535 104.26Z" fill="white"/>
<path d="M53.3206 112.114L54.4933 112.098C54.5173 112.251 54.5704 112.402 54.6528 112.551C54.7323 112.699 54.8522 112.829 55.0123 112.942C55.1725 113.054 55.383 113.132 55.6438 113.174C55.9999 113.232 56.3101 113.2 56.5744 113.079C56.8383 112.961 56.9905 112.777 57.0311 112.527C57.0661 112.312 57.0145 112.125 56.876 111.967C56.7376 111.809 56.4972 111.659 56.1547 111.517L55.1667 111.115C54.5946 110.881 54.1859 110.597 53.9408 110.264C53.6956 109.93 53.6102 109.535 53.6844 109.078C53.7473 108.691 53.9155 108.364 54.189 108.098C54.4593 107.834 54.8074 107.649 55.2334 107.542C55.6566 107.435 56.1289 107.424 56.6505 107.509C57.374 107.627 57.9392 107.877 58.3461 108.26C58.7526 108.646 58.9612 109.133 58.9721 109.722L57.7264 109.709C57.7022 109.38 57.5855 109.115 57.3764 108.914C57.1668 108.716 56.8728 108.586 56.4942 108.524C56.082 108.457 55.7386 108.489 55.4641 108.62C55.1891 108.754 55.0313 108.946 54.9908 109.195C54.9579 109.397 55.0061 109.579 55.1352 109.741C55.2615 109.903 55.4732 110.044 55.7702 110.164L56.8249 110.581C57.4054 110.817 57.8157 111.108 58.0558 111.455C58.2931 111.802 58.3743 112.205 58.2996 112.665C58.2377 113.046 58.0769 113.362 57.8173 113.614C57.5577 113.865 57.2271 114.04 56.8254 114.139C56.4232 114.24 55.9795 114.252 55.4944 114.173C54.7962 114.059 54.2712 113.819 53.9194 113.451C53.5672 113.085 53.3676 112.64 53.3206 112.114Z" fill="white"/>
<path d="M71.1171 106.945C71.3464 106.904 71.558 106.95 71.752 107.083C71.9464 107.219 72.0644 107.402 72.1058 107.635C72.1467 107.864 72.0991 108.074 71.963 108.266C71.8275 108.461 71.645 108.578 71.4157 108.619C71.1864 108.66 70.9745 108.613 70.78 108.477C70.5861 108.345 70.4687 108.164 70.4278 107.934C70.4003 107.78 70.4143 107.632 70.4696 107.49C70.5227 107.35 70.6054 107.232 70.7178 107.134C70.8302 107.036 70.9633 106.973 71.1171 106.945Z" fill="white"/>
<path d="M90.3287 103.148L88.365 99.794L89.4644 99.1499L92.7716 104.798L91.7164 105.417L91.1781 104.497L91.1082 104.538C91.1535 104.913 91.0907 105.273 90.9199 105.617C90.7467 105.962 90.4481 106.259 90.0241 106.507C89.6392 106.733 89.2548 106.849 88.8709 106.857C88.4883 106.867 88.1248 106.761 87.7803 106.538C87.4359 106.315 87.1272 105.97 86.8545 105.505L84.7509 101.912L85.8502 101.268L87.8763 104.728C88.116 105.138 88.41 105.395 88.7582 105.5C89.1078 105.608 89.4689 105.553 89.8414 105.335C90.0963 105.186 90.2908 104.998 90.4247 104.771C90.5562 104.546 90.6171 104.293 90.6074 104.012C90.5967 103.735 90.5038 103.447 90.3287 103.148Z" fill="white"/>
<path d="M101.202 86.6022L107.493 89.2419L106.662 90.2632L102.125 88.2224L102.085 88.272L104.999 92.3057L104.168 93.327L99.6507 91.2964L99.6104 91.346L102.517 95.3564L101.685 96.3776L97.8235 90.7534L98.6439 89.7454L103.147 91.6986L103.209 91.6226L100.384 87.6069L101.202 86.6022Z" fill="white"/>
<path d="M106.092 74.5457C106.288 73.964 106.592 73.5013 107.004 73.1574C107.416 72.8136 107.902 72.6025 108.462 72.5241C109.022 72.4457 109.623 72.5143 110.263 72.7299C110.907 72.9464 111.429 73.2556 111.831 73.6575C112.232 74.0593 112.493 74.5218 112.614 75.045C112.735 75.5683 112.697 76.1207 112.502 76.7024C112.306 77.284 112.002 77.7467 111.59 78.0906C111.178 78.4344 110.69 78.6451 110.128 78.7226C109.565 78.8001 108.962 78.7306 108.319 78.514C107.678 78.2984 107.158 77.9901 106.759 77.5892C106.361 77.1883 106.101 76.7262 105.98 76.203C105.859 75.6797 105.897 75.1273 106.092 74.5457ZM107.105 74.8908C106.978 75.2678 106.973 75.6137 107.088 75.9285C107.204 76.2432 107.408 76.5156 107.699 76.7455C107.99 76.9781 108.334 77.1615 108.733 77.2956C109.129 77.4287 109.513 77.4905 109.884 77.4807C110.258 77.4746 110.588 77.3816 110.873 77.2018C111.158 77.022 111.364 76.7436 111.491 76.3667C111.619 75.987 111.623 75.6379 111.506 75.3196C111.387 75.0039 111.181 74.7293 110.888 74.4958C110.597 74.2658 110.253 74.0843 109.857 73.9511C109.459 73.817 109.074 73.7535 108.703 73.7605C108.331 73.7703 108.004 73.8655 107.721 74.0462C107.438 74.2296 107.232 74.5111 107.105 74.8908Z" fill="white"/>
<path d="M107.82 60.0602C107.829 59.5319 107.971 59.0625 108.248 58.6522C108.527 58.2448 108.92 57.9272 109.427 57.6996C109.936 57.4749 110.545 57.3683 111.252 57.3798C111.959 57.3913 112.562 57.519 113.061 57.763C113.56 58.0097 113.94 58.3426 114.2 58.7617C114.46 59.1808 114.586 59.653 114.578 60.1785C114.571 60.5847 114.497 60.9103 114.357 61.1552C114.22 61.403 114.06 61.5936 113.879 61.7271C113.698 61.8633 113.538 61.9687 113.401 62.0432L113.4 62.1199L116.642 62.1726L116.621 63.4465L107.895 63.3048L107.915 62.0606L108.934 62.0772L108.936 61.9706C108.798 61.8917 108.64 61.7783 108.464 61.6305C108.287 61.4856 108.134 61.2871 108.005 61.0349C107.875 60.7828 107.814 60.4579 107.82 60.0602ZM108.902 60.3591C108.896 60.7255 108.988 61.0367 109.177 61.2926C109.369 61.5515 109.637 61.749 109.981 61.8853C110.325 62.0245 110.728 62.0978 111.188 62.1053C111.642 62.1126 112.041 62.0538 112.384 61.9286C112.727 61.8035 112.996 61.6161 113.19 61.3664C113.385 61.1167 113.485 60.8058 113.491 60.4336C113.497 60.0502 113.403 59.729 113.208 59.4701C113.014 59.2112 112.745 59.0137 112.404 58.8774C112.062 58.744 111.675 58.6738 111.244 58.6668C110.806 58.6597 110.412 58.7186 110.06 58.8436C109.709 58.9686 109.429 59.1573 109.22 59.4096C109.014 59.6648 108.908 59.9813 108.902 60.3591Z" fill="white"/>
<path d="M113.502 43.8051L105.262 46.6808L104.843 45.4777L113.083 42.602L113.502 43.8051Z" fill="white"/>
<path d="M110.839 37.5532L103.02 41.4305L102.454 40.2888L110.273 36.4115L110.839 37.5532Z" fill="white"/>
<path d="M96.4234 31.7964C96.0406 31.3168 95.8166 30.8104 95.7511 30.2774C95.6856 29.7444 95.7716 29.2213 96.0091 28.7081C96.2465 28.1949 96.6295 27.7274 97.1578 27.3055C97.6884 26.8818 98.2312 26.6102 98.7863 26.4905C99.3414 26.3708 99.8714 26.402 100.376 26.5841C100.882 26.7661 101.325 27.097 101.708 27.5766C102.091 28.0563 102.315 28.5626 102.38 29.0957C102.446 29.6287 102.359 30.1527 102.119 30.6676C101.879 31.1826 101.494 31.6519 100.964 32.0755C100.435 32.4974 99.8947 32.7673 99.3418 32.8852C98.789 33.0031 98.26 32.971 97.755 32.789C97.2499 32.6069 96.8061 32.2761 96.4234 31.7964ZM97.2618 31.1323C97.5099 31.4432 97.7976 31.6353 98.1249 31.7084C98.4521 31.7815 98.7913 31.7579 99.1423 31.6376C99.4951 31.5195 99.8358 31.3293 100.164 31.0669C100.491 30.8063 100.751 30.5171 100.944 30.1991C101.141 29.8816 101.242 29.5542 101.245 29.2169C101.249 28.8797 101.126 28.5556 100.878 28.2447C100.628 27.9316 100.338 27.7382 100.007 27.6647C99.6771 27.5933 99.3348 27.6176 98.9798 27.7374C98.6288 27.8578 98.2901 28.0482 97.9638 28.3088C97.6352 28.5711 97.3734 28.8602 97.1783 29.1759C96.9849 29.4939 96.8876 29.8206 96.8864 30.1561C96.8869 30.4938 97.012 30.8192 97.2618 31.1323Z" fill="white"/>
<path d="M87.5342 23.7978L91.4935 18.5856L92.4739 19.3309L91.845 20.1589L91.8993 20.2001C92.2073 19.9918 92.5422 19.8985 92.904 19.9201C93.2697 19.9412 93.6052 20.0678 93.9105 20.2999C93.9738 20.3481 94.0467 20.4071 94.1293 20.4769C94.214 20.5485 94.2787 20.6066 94.3233 20.6512L93.5861 21.6217C93.554 21.5794 93.491 21.512 93.3973 21.4193C93.3053 21.3244 93.2073 21.2374 93.1033 21.1583C92.8635 20.9761 92.6112 20.8645 92.3461 20.8236C92.0851 20.7821 91.8324 20.8095 91.5881 20.9057C91.3455 20.9996 91.1382 21.1597 90.9664 21.3859L88.5485 24.5689L87.5342 23.7978Z" fill="white"/>
<path d="M78.6268 19.3718C78.0461 19.1185 77.6034 18.7689 77.2988 18.323C76.998 17.8757 76.8372 17.37 76.8164 16.8062C76.7957 16.2423 76.9164 15.6596 77.1786 15.058C77.4442 14.4486 77.7932 13.9608 78.2255 13.5946C78.659 13.2258 79.1414 13.0007 79.6726 12.9194C80.2039 12.8381 80.7521 12.9207 81.3172 13.1672C81.7728 13.366 82.1422 13.6278 82.4251 13.9527C82.7092 14.275 82.8948 14.6349 82.9819 15.0324C83.0715 15.4311 83.0492 15.8413 82.9149 16.2631L81.7783 15.7673C81.8384 15.4588 81.8008 15.1541 81.6654 14.8533C81.5326 14.5536 81.28 14.3226 80.9076 14.1602C80.5821 14.0182 80.2595 13.9797 79.9398 14.0449C79.6239 14.1085 79.3295 14.2683 79.0568 14.5244C78.7852 14.7779 78.5563 15.1181 78.3701 15.5452C78.1794 15.9827 78.0812 16.3893 78.0756 16.765C78.0699 17.1406 78.1501 17.4685 78.3162 17.7486C78.4849 18.0299 78.7346 18.2427 79.0653 18.3869C79.2867 18.4835 79.5048 18.5306 79.7196 18.5282C79.9382 18.5244 80.1422 18.4723 80.3316 18.3721C80.5235 18.2729 80.6914 18.1261 80.835 17.9315L81.9717 18.4273C81.7609 18.7972 81.4836 19.0884 81.1399 19.3011C80.7962 19.5138 80.4092 19.6302 79.979 19.6502C79.5514 19.6714 79.1007 19.5786 78.6268 19.3718Z" fill="white"/>
<path d="M69.4528 11.7612L68.281 11.8091C68.2529 11.6562 68.1957 11.5066 68.1094 11.3602C68.0259 11.2142 67.9026 11.0871 67.7395 10.979C67.5764 10.871 67.3639 10.7992 67.1021 10.7638C66.7445 10.7155 66.4353 10.7554 66.1743 10.8835C65.9137 11.0088 65.7665 11.1967 65.7326 11.4473C65.7033 11.664 65.7599 11.8494 65.9025 12.0035C66.0451 12.1575 66.2895 12.3009 66.6356 12.4337L67.634 12.8096C68.2122 13.0282 68.6283 13.3009 68.8823 13.6277C69.1363 13.9544 69.2323 14.3473 69.1703 14.8062C69.1178 15.1947 68.9584 15.5257 68.6921 15.7993C68.429 16.0705 68.0859 16.2649 67.6629 16.3826C67.2428 16.5006 66.7709 16.5243 66.2472 16.4534C65.5209 16.3552 64.9492 16.1202 64.5321 15.7485C64.1155 15.3739 63.8939 14.8924 63.8673 14.304L65.1129 14.2833C65.1459 14.6117 65.2696 14.8735 65.484 15.0688C65.6988 15.2612 65.9962 15.3832 66.3763 15.4346C66.7902 15.4905 67.1326 15.4494 67.4035 15.3112C67.6748 15.1701 67.8274 14.9743 67.8613 14.7238C67.8887 14.521 67.8357 14.3404 67.7023 14.1819C67.5717 14.0238 67.3564 13.8886 67.0562 13.7763L65.9908 13.3871C65.4041 13.1673 64.9862 12.8872 64.7369 12.5467C64.4904 12.2067 64.3984 11.8058 64.4608 11.3441C64.5125 10.9612 64.6648 10.6406 64.9176 10.3824C65.1703 10.1242 65.4962 9.94034 65.8951 9.83088C66.2944 9.71861 66.7376 9.69541 67.2246 9.76128C67.9257 9.85608 68.4569 10.0827 68.8184 10.4412C69.1803 10.7969 69.3917 11.2369 69.4528 11.7612Z" fill="white"/>
<rect x="50.5" y="41.5" width="23" height="43" rx="11.5" stroke="white" stroke-width="3"/>
<circle cx="62" cy="73" r="6" fill="white"/>
</svg>
